<svg xmlns='http://www.w3.org/2000/svg' class="pikchr" viewBox="0 0 508.32 328.32">
<path d="M124.56,74.16L203.76,74.16A14.4 14.4 0 0 0 218.16 59.76L218.16,16.56A14.4 14.4 0 0 0 203.76 2.16L124.56,2.16A14.4 14.4 0 0 0 110.16 16.56L110.16,59.76A14.4 14.4 0 0 0 124.56 74.16Z"  style="fill:none;stroke-width:2.16;stroke:rgb(0,0,0);" />
<text x="164.16" y="38.16" text-anchor="middle" fill="rgb(0,0,0)" dominant-baseline="central">client</text>
<path d="M304.56,74.16L383.76,74.16A14.4 14.4 0 0 0 398.16 59.76L398.16,16.56A14.4 14.4 0 0 0 383.76 2.16L304.56,2.16A14.4 14.4 0 0 0 290.16 16.56L290.16,59.76A14.4 14.4 0 0 0 304.56 74.16Z"  style="fill:none;stroke-width:2.16;stroke:rgb(0,0,0);" />
<text x="344.16" y="38.16" text-anchor="middle" fill="rgb(0,0,0)" dominant-baseline="central">client</text>
<path d="M200.16,182.16L308.16,182.16L308.16,110.16L200.16,110.16Z"  style="fill:none;stroke-width:2.16;stroke:rgb(0,0,0);" />
<text x="254.16" y="146.16" text-anchor="middle" fill="rgb(0,0,0)" dominant-baseline="central">pool</text>
<path d="M218.16,326.16L290.16,326.16A36 36 0 0 0 326.16 290.16A36 36 0 0 0 290.16 254.16L218.16,254.16A36 36 0 0 0 182.16 290.16A36 36 0 0 0 218.16 326.16Z"  style="fill:none;stroke-width:2.16;stroke:rgb(0,0,0);" />
<text x="254.16" y="290.16" text-anchor="middle" fill="rgb(0,0,0)" dominant-baseline="central">node</text>
<path d="M38.16,326.16L110.16,326.16A36 36 0 0 0 146.16 290.16A36 36 0 0 0 110.16 254.16L38.16,254.16A36 36 0 0 0 2.16 290.16A36 36 0 0 0 38.16 326.16Z"  style="fill:none;stroke-width:2.16;stroke:rgb(0,0,0);" />
<text x="74.16" y="290.16" text-anchor="middle" fill="rgb(0,0,0)" dominant-baseline="central">node</text>
<path d="M398.16,326.16L470.16,326.16A36 36 0 0 0 506.16 290.16A36 36 0 0 0 470.16 254.16L398.16,254.16A36 36 0 0 0 362.16 290.16A36 36 0 0 0 398.16 326.16Z"  style="fill:none;stroke-width:2.16;stroke:rgb(0,0,0);" />
<text x="434.16" y="290.16" text-anchor="middle" fill="rgb(0,0,0)" dominant-baseline="central">node</text>
<polygon points="254.16,110.16 249.84,98.64 258.48,98.64" style="fill:rgb(0,0,0)"/>
<path d="M218.16,38.16 L 236.16,38.16 Q 254.16,38.16 254.16,71.28 L 254.16,104.4"  style="fill:none;stroke-width:2.16;stroke:rgb(0,0,0);" />
<polygon points="254.16,110.16 249.84,98.64 258.48,98.64" style="fill:rgb(0,0,0)"/>
<path d="M290.16,38.16 L 272.16,38.16 Q 254.16,38.16 254.16,71.28 L 254.16,104.4"  style="fill:none;stroke-width:2.16;stroke:rgb(0,0,0);" />
<text x="254.16" y="23.04" text-anchor="middle" fill="rgb(0,0,0)" dominant-baseline="central">tasks</text>
<polygon points="254.16,254.16 249.84,242.64 258.48,242.64" style="fill:rgb(0,0,0)"/>
<path d="M254.16,182.16L254.16,248.4"  style="fill:none;stroke-width:2.16;stroke:rgb(0,0,0);" />
<polygon points="74.16,254.16 83.2516,245.871 86.4605,253.893" style="fill:rgb(0,0,0)"/>
<path d="M254.16,182.16L79.508,252.021"  style="fill:none;stroke-width:2.16;stroke:rgb(0,0,0);" />
<polygon points="434.16,254.16 421.86,253.893 425.068,245.871" style="fill:rgb(0,0,0)"/>
<path d="M254.16,182.16L428.812,252.021"  style="fill:none;stroke-width:2.16;stroke:rgb(0,0,0);" />
<text x="344.16" y="206.46" text-anchor="start" fill="rgb(0,0,0)" dominant-baseline="central">tasks</text>
</svg>

